<?xml version="1.0" encoding="UTF-8" standalone="no"?>
<svg
   xmlns:dc="http://purl.org/dc/elements/1.1/"
   xmlns:cc="http://creativecommons.org/ns#"
   xmlns:rdf="http://www.w3.org/1999/02/22-rdf-syntax-ns#"
   xmlns:svg="http://www.w3.org/2000/svg"
   xmlns="http://www.w3.org/2000/svg"
   xml:space="preserve"
   id="Layer_1"
   viewBox="0 0 154.57844 179.91373"
   height="5.0775652cm"
   width="4.3625469cm"
   version="1.1"><metadata
     id="metadata7"><rdf:RDF><cc:Work
         rdf:about=""><dc:format>image/svg+xml</dc:format><dc:type
           rdf:resource="http://purl.org/dc/dcmitype/StillImage" /><dc:title></dc:title></cc:Work></rdf:RDF></metadata><defs
     id="defs7" /><path
     transform="matrix(0.74878439,0,0,0.7587131,77.289223,-78.858134)"
     style="fill:#46353a;fill-opacity:1;stroke:#ac2a2f;stroke-width:8.04911232;stroke-linecap:round;stroke-linejoin:round;stroke-miterlimit:4;stroke-dasharray:none;stroke-opacity:1"
     d="M 99.195051,279.77204 5.131144e-6,337.04233 -99.195041,279.77204 -99.19504,165.23147 6.1394908e-6,107.96118 99.195052,165.23147 Z"
     id="path3341" /><path
     style="fill:#a3a192;fill-opacity:1"
     id="path3"
     d="m 101.64814,114.27241 c -1.4515,0.89226 -19.282074,-0.0937 -29.350483,-0.0937 -6.340548,0 -24.696248,0.37544 -37.044212,2.62662 -8.110966,1.47862 -7.788735,-5.44053 -1.709692,-5.62793 10.838063,-0.3341 18.371238,-1.7521 21.276746,-2.25117 4.369231,-0.75046 15.197605,-0.37512 16.337434,0 1.139837,0.37502 2.849312,-1.12569 2.089573,-3.00174 -0.759747,-1.87595 -8.638846,-34.544075 22.606682,-42.959465 4.179242,-1.12558 3.799591,-3.18904 5.129192,-4.68974 1.3296,-1.50072 4.17924,-2.81425 4.17924,-4.31495 0,-1.5007 -1.3296,-13.506823 0.94996,-14.444787 2.27977,-0.937872 6.26903,5.440197 7.21876,5.627817 0.94985,0.18773 3.98969,0.18773 5.31941,-0.56274 1.3295,-0.75047 5.50907,-6.003268 6.6488,-5.252805 1.13993,0.750464 0.18987,6.190665 0.37987,6.941125 0.18999,0.75047 0.35507,2.12146 -0.18978,3.37677 -1.13994,2.62618 0.94996,6.75373 -1.70992,9.1922 -1.28342,1.17672 -4.74965,5.62793 -3.79958,9.94255 0.95006,4.31451 0.95006,9.00491 -1.5196,12.00632 -2.46977,3.00131 -6.64901,11.06793 -4.9391,15.00752 1.7097,3.93952 3.22941,9.567655 3.79927,12.006125 0.56997,2.43857 5.5094,5.81533 4.74942,6.94091 -0.75995,1.12559 -5.50928,1.50093 -7.21897,0.93808 -1.70991,-0.56273 -1.89958,-2.25117 -2.65954,-3.00153 -0.75996,-0.75046 -3.03941,-9.56743 -6.07904,-11.8186 -2.08989,0.93775 -0.91777,4.30505 -3.4195,7.12853 -1.32983,1.50125 3.98947,3.18948 -1.04494,6.28459 z" /><text
     transform="scale(0.99415002,1.0058844)"
     id="text3335"
     y="103.41974"
     x="21.028797"
     style="font-style:normal;font-weight:normal;font-size:96.62216187px;line-height:125%;font-family:sans-serif;letter-spacing:0px;word-spacing:0px;opacity:1;fill:#ac2a2f;fill-opacity:1;stroke:none;stroke-width:1px;stroke-linecap:butt;stroke-linejoin:miter;stroke-opacity:1"
     xml:space="preserve"><tspan
       style="font-style:normal;font-variant:normal;font-weight:normal;font-stretch:normal;font-size:96.62313843px;line-height:125%;font-family:Calibri;-inkscape-font-specification:'Calibri, Normal';text-align:start;writing-mode:lr-tb;text-anchor:start;fill:#ac2a2f;fill-opacity:1"
       y="103.41974"
       x="21.028797"
       id="tspan3337">R</tspan></text>
<text
     transform="scale(0.9934353,1.0066081)"
     id="text4143"
     y="140.30566"
     x="30.199884"
     style="font-style:normal;font-weight:normal;font-size:34.95040894px;line-height:125%;font-family:sans-serif;letter-spacing:0px;word-spacing:0px;opacity:1;fill:#ac2a2f;fill-opacity:1;stroke:none;stroke-width:1px;stroke-linecap:butt;stroke-linejoin:miter;stroke-opacity:1"
     xml:space="preserve"><tspan
       style="font-style:normal;font-variant:normal;font-weight:normal;font-stretch:normal;font-size:34.95040894px;line-height:125%;font-family:Calibri;-inkscape-font-specification:'Calibri, Normal';text-align:start;letter-spacing:1.02903879px;writing-mode:lr-tb;text-anchor:start;fill:#ac2a2f;fill-opacity:1"
       y="140.30566"
       x="30.199884"
       id="tspan4145">4CATS</tspan></text>
</svg>